<?xml version="1.0" standalone="no"?>
<!DOCTYPE svg PUBLIC "-//W3C//DTD SVG 20010904//EN"
 "http://www.w3.org/TR/2001/REC-SVG-20010904/DTD/svg10.dtd">
<svg version="1.0" xmlns="http://www.w3.org/2000/svg"
 width="312.000000pt" height="162.000000pt" viewBox="0 0 312.000000 162.000000"
 preserveAspectRatio="xMidYMid meet">

<g transform="translate(0.000000,162.000000) scale(0.100000,-0.100000)"
fill="#000000" stroke="none">
<path d="M0 810 l0 -810 1560 0 1560 0 0 810 0 810 -1560 0 -1560 0 0 -810z
m1389 414 c27 -8 77 -33 111 -55 l61 -41 44 31 c217 156 512 92 648 -139 100
-172 63 -399 -89 -539 -153 -141 -369 -156 -544 -39 l-60 40 -60 -40 c-175
-117 -391 -102 -544 39 -229 210 -178 578 99 715 112 55 214 64 334 28z"/>
<path d="M1182 1199 c-209 -35 -360 -247 -325 -456 38 -219 241 -368 455 -333
67 10 173 57 202 88 16 18 15 22 -19 72 -40 60 -43 70 -16 70 12 0 30 -17 48
-45 15 -25 30 -45 33 -45 3 0 18 20 33 45 18 28 36 45 48 45 27 0 24 -10 -16
-70 -34 -50 -35 -54 -19 -72 29 -31 135 -78 202 -88 214 -35 417 114 455 333
53 311 -279 559 -566 423 -29 -13 -65 -35 -80 -48 l-29 -23 36 -54 c41 -61 44
-71 17 -71 -12 0 -30 17 -48 45 -15 25 -30 45 -33 45 -3 0 -18 -20 -33 -45
-18 -28 -36 -45 -48 -45 -27 0 -24 10 17 71 l36 54 -29 23 c-43 36 -125 72
-190 82 -32 6 -62 9 -68 9 -5 -1 -34 -5 -63 -10z m58 -238 c0 -11 -5 -23 -11
-27 -15 -9 -33 12 -26 30 9 23 37 20 37 -3z m66 8 c3 -6 0 -17 -7 -25 -18 -17
-44 -2 -36 20 7 18 33 21 43 5z m-12 -63 c45 -19 66 -52 66 -102 0 -52 -28
-90 -79 -105 -101 -30 -182 91 -114 171 41 50 73 59 127 36z m-294 -38 l0 -42
43 42 c31 30 51 42 72 42 l30 0 -53 -52 -52 -53 52 -52 52 -53 -29 0 c-21 0
-41 12 -72 42 l-43 42 0 -42 c0 -35 -3 -42 -20 -42 -19 0 -20 7 -20 105 0 98
1 105 20 105 17 0 20 -7 20 -42z m540 22 c24 -24 26 -67 4 -91 -15 -17 -15
-21 5 -52 26 -43 26 -47 -2 -47 -15 0 -28 11 -41 35 -14 25 -26 35 -43 35 -20
0 -23 -5 -23 -35 0 -28 -4 -35 -20 -35 -19 0 -20 7 -20 105 l0 105 60 0 c47 0
64 -4 80 -20z m221 -1 c15 -15 19 -27 14 -42 -8 -27 -8 -44 0 -79 12 -45 -22
-68 -100 -68 l-65 0 0 105 0 105 65 0 c53 0 69 -4 86 -21z m209 1 c0 -18 -7
-20 -55 -20 -48 0 -55 -2 -55 -20 0 -17 7 -20 45 -20 41 0 45 -2 45 -25 0 -23
-4 -25 -45 -25 -38 0 -45 -3 -45 -20 0 -18 7 -20 55 -20 48 0 55 -2 55 -20 0
-18 -7 -20 -75 -20 l-75 0 0 105 0 105 75 0 c68 0 75 -2 75 -20z m180 0 c24
-24 26 -67 4 -91 -15 -17 -15 -21 5 -54 26 -45 26 -45 -2 -45 -15 0 -28 11
-41 35 -14 25 -26 35 -43 35 -20 0 -23 -5 -23 -35 0 -28 -4 -35 -20 -35 -19 0
-20 7 -20 105 l0 105 60 0 c47 0 64 -4 80 -20z"/>
<path d="M1206 855 c-31 -31 -27 -84 8 -107 21 -14 73 -8 89 10 22 25 21 75
-1 95 -23 21 -76 22 -96 2z"/>
<path d="M1440 840 c0 -26 3 -30 29 -30 32 0 56 22 47 45 -3 9 -18 15 -41 15
-32 0 -35 -2 -35 -30z"/>
<path d="M1660 850 c0 -16 7 -20 35 -20 28 0 35 4 35 20 0 16 -7 20 -35 20
-28 0 -35 -4 -35 -20z"/>
<path d="M1660 765 c0 -22 4 -25 34 -25 19 0 38 5 41 10 11 18 -15 40 -46 40
-24 0 -29 -4 -29 -25z"/>
<path d="M2050 840 c0 -26 3 -30 29 -30 32 0 56 22 47 45 -3 9 -18 15 -41 15
-32 0 -35 -2 -35 -30z"/>
</g>
</svg>
