<?xml version="1.0" standalone="no"?>
<!DOCTYPE svg PUBLIC "-//W3C//DTD SVG 20010904//EN"
 "http://www.w3.org/TR/2001/REC-SVG-20010904/DTD/svg10.dtd">
<svg version="1.0" xmlns="http://www.w3.org/2000/svg"
 width="600.000000pt" height="394.000000pt" viewBox="0 0 600.000000 394.000000"
 preserveAspectRatio="xMidYMid meet">

<g transform="translate(0.000000,394.000000) scale(0.100000,-0.100000)"
fill="#000000" stroke="none">
<path d="M1970 3219 c-426 -53 -796 -314 -985 -697 -172 -348 -172 -766 0
-1114 123 -249 341 -465 587 -581 91 -43 240 -91 338 -108 118 -21 335 -16
460 10 201 43 399 138 555 268 l75 63 75 -63 c156 -130 354 -225 555 -268 135
-28 353 -31 480 -6 258 51 485 171 665 352 337 338 453 819 308 1279 -117 373
-425 682 -806 810 -197 65 -444 80 -647 37 -201 -43 -399 -138 -555 -268 l-75
-63 -75 63 c-155 129 -356 227 -551 266 -119 24 -299 34 -404 20z m295 -100
c224 -27 456 -133 619 -281 l50 -45 -41 -49 c-65 -78 -147 -216 -167 -281 -7
-22 -5 -23 43 -23 l51 0 26 53 c24 47 98 160 139 211 15 20 15 20 30 0 41 -51
115 -164 139 -211 l26 -53 51 0 c48 0 50 1 43 23 -20 65 -102 203 -167 281
l-41 49 50 45 c327 296 824 373 1236 192 242 -106 454 -308 572 -544 88 -178
121 -318 121 -521 0 -265 -75 -490 -231 -697 -249 -332 -652 -506 -1063 -459
-236 28 -467 131 -635 283 l-50 45 41 49 c65 78 147 216 167 282 7 21 5 22
-43 22 -49 0 -51 -1 -72 -42 -21 -42 -113 -185 -143 -222 -16 -20 -16 -20 -31
0 -41 51 -115 164 -139 212 l-26 52 -51 0 c-48 0 -50 -1 -43 -22 20 -66 102
-204 167 -282 l41 -49 -50 -45 c-331 -300 -836 -375 -1252 -186 -233 106 -441
308 -556 538 -88 178 -121 318 -121 521 0 265 74 489 231 698 252 336 658 508
1079 456z"/>
<path d="M1987 2442 c-21 -23 -22 -66 -2 -82 22 -18 66 -15 82 6 42 57 -33
128 -80 76z"/>
<path d="M2167 2442 c-10 -10 -17 -27 -17 -38 1 -61 88 -78 109 -22 22 57 -52
105 -92 60z"/>
<path d="M2047 2270 c-92 -23 -179 -97 -218 -184 -29 -67 -29 -175 0 -242 29
-64 102 -137 165 -165 74 -33 173 -32 246 2 79 37 115 71 152 147 28 56 33 77
33 137 0 77 -28 152 -79 212 -60 71 -206 116 -299 93z m161 -118 c46 -21 98
-85 112 -139 15 -63 -1 -129 -45 -181 -44 -51 -95 -75 -161 -74 -118 1 -204
88 -204 207 0 157 153 254 298 187z"/>
<path d="M1280 1965 l0 -305 50 0 50 0 0 137 0 138 138 -138 137 -137 63 0
c34 0 62 4 62 8 0 4 -65 73 -145 152 -80 79 -145 144 -145 145 0 0 65 66 145
145 80 80 145 148 145 153 0 4 -28 7 -62 7 l-63 0 -137 -137 -138 -138 0 138
0 137 -50 0 -50 0 0 -305z"/>
<path d="M2555 2259 c-3 -8 -4 -145 -3 -304 l3 -290 50 0 50 0 3 108 3 107 63
0 63 0 65 -107 64 -108 57 -3 c32 -2 57 1 57 7 0 5 -32 60 -71 121 l-71 112
37 31 c42 34 75 97 75 142 0 38 -31 104 -61 132 -48 44 -96 56 -241 61 -111 4
-139 2 -143 -9z m306 -118 c20 -21 29 -39 29 -63 0 -71 -56 -108 -165 -108
l-65 0 0 100 0 100 86 0 c81 0 87 -1 115 -29z"/>
<path d="M3170 2266 c0 -3 0 -140 0 -303 l-1 -298 158 0 c142 1 162 3 200 23
54 28 80 63 88 117 9 59 -1 100 -36 140 -26 29 -27 34 -13 46 43 36 57 123 29
182 -17 37 -64 71 -115 85 -38 10 -310 17 -310 8z m315 -121 c30 -29 32 -64 6
-96 -17 -22 -28 -24 -120 -27 l-101 -4 0 76 0 76 95 0 c88 0 98 -2 120 -25z
m4 -242 c11 -10 24 -32 27 -50 5 -27 1 -37 -24 -63 -30 -29 -33 -30 -126 -30
l-96 0 0 80 0 80 99 0 c79 0 103 -3 120 -17z"/>
<path d="M3765 2257 c-3 -7 -4 -143 -3 -302 l3 -290 198 -3 197 -2 0 50 0 50
-144 0 -144 0 -4 76 c-2 42 -1 78 1 80 2 2 58 4 123 4 l118 0 0 51 0 50 -119
-3 -120 -3 -3 73 c-2 41 -1 76 1 78 2 2 69 4 148 4 l143 0 0 50 0 50 -195 0
c-148 0 -197 -3 -200 -13z"/>
<path d="M4305 2259 c-3 -8 -4 -145 -3 -304 l3 -290 50 0 50 0 3 108 3 107 63
0 64 0 63 -106 c34 -58 68 -108 74 -111 7 -2 35 -3 64 -1 l51 3 -75 118 -75
118 45 42 c103 96 74 248 -58 302 -57 24 -314 35 -322 14z m304 -115 c26 -21
31 -33 31 -68 0 -72 -54 -106 -166 -106 l-64 0 0 100 0 100 84 0 c76 0 87 -3
115 -26z"/>
</g>
</svg>
